<?xml version="1.0" standalone="no"?><!-- Generator: Gravit.io --><svg xmlns="http://www.w3.org/2000/svg" xmlns:xlink="http://www.w3.org/1999/xlink" style="isolation:isolate" viewBox="0 0 1323 263.77" width="1323" height="263.77"><defs><clipPath id="_clipPath_Me6G6RRGV6IcE6aOYU9B5nlSBG0swEHb"><rect width="1323" height="263.77"/></clipPath></defs><g clip-path="url(#_clipPath_Me6G6RRGV6IcE6aOYU9B5nlSBG0swEHb)"><path d=" M 87.014 172.461 L 87.014 172.461 L 87.014 172.461 Q 87.014 168.652 85.695 165.332 L 85.695 165.332 L 85.695 165.332 Q 84.377 162.012 81.203 159.131 L 81.203 159.131 L 81.203 159.131 Q 78.029 156.25 72.902 153.857 L 72.902 153.857 L 72.902 153.857 Q 67.775 151.465 60.158 149.414 L 60.158 149.414 L 60.158 149.414 Q 50.881 146.875 42.434 143.066 L 42.434 143.066 L 42.434 143.066 Q 33.986 139.258 27.541 133.887 L 27.541 133.887 L 27.541 133.887 Q 21.096 128.516 17.238 121.387 L 17.238 121.387 L 17.238 121.387 Q 13.381 114.258 13.381 104.98 L 13.381 104.98 L 13.381 104.98 Q 13.381 95.996 17.189 88.672 L 17.189 88.672 L 17.189 88.672 Q 20.998 81.348 27.736 76.172 L 27.736 76.172 L 27.736 76.172 Q 34.475 70.996 43.654 68.213 L 43.654 68.213 L 43.654 68.213 Q 52.834 65.43 63.576 65.43 L 63.576 65.43 L 63.576 65.43 Q 74.709 65.43 83.938 68.652 L 83.938 68.652 L 83.938 68.652 Q 93.166 71.875 99.807 77.686 L 99.807 77.686 L 99.807 77.686 Q 106.447 83.496 110.158 91.504 L 110.158 91.504 L 110.158 91.504 Q 113.869 99.512 113.869 109.082 L 113.869 109.082 L 87.111 109.082 L 87.111 109.082 Q 86.916 104.297 85.402 100.293 L 85.402 100.293 L 85.402 100.293 Q 83.889 96.289 80.91 93.408 L 80.91 93.408 L 80.91 93.408 Q 77.932 90.527 73.488 88.916 L 73.488 88.916 L 73.488 88.916 Q 69.045 87.305 63.088 87.305 L 63.088 87.305 L 63.088 87.305 Q 57.619 87.305 53.371 88.623 L 53.371 88.623 L 53.371 88.623 Q 49.123 89.941 46.193 92.334 L 46.193 92.334 L 46.193 92.334 Q 43.264 94.727 41.75 97.998 L 41.75 97.998 L 41.75 97.998 Q 40.236 101.27 40.236 105.078 L 40.236 105.078 L 40.236 105.078 Q 40.236 109.082 42.238 112.305 L 42.238 112.305 L 42.238 112.305 Q 44.24 115.527 48.049 118.115 L 48.049 118.115 L 48.049 118.115 Q 51.857 120.703 57.277 122.852 L 57.277 122.852 L 57.277 122.852 Q 62.697 125 69.533 126.855 L 69.533 126.855 L 69.533 126.855 Q 79.299 129.688 87.502 133.789 L 87.502 133.789 L 87.502 133.789 Q 95.705 137.891 101.613 143.506 L 101.613 143.506 L 101.613 143.506 Q 107.521 149.121 110.793 156.299 L 110.793 156.299 L 110.793 156.299 Q 114.064 163.477 114.064 172.266 L 114.064 172.266 L 114.064 172.266 Q 114.064 181.641 110.305 188.916 L 110.305 188.916 L 110.305 188.916 Q 106.545 196.191 99.904 201.221 L 99.904 201.221 L 99.904 201.221 Q 93.264 206.25 84.084 208.838 L 84.084 208.838 L 84.084 208.838 Q 74.904 211.426 64.064 211.426 L 64.064 211.426 L 64.064 211.426 Q 57.326 211.426 50.637 210.205 L 50.637 210.205 L 50.637 210.205 Q 43.947 208.984 37.844 206.445 L 37.844 206.445 L 37.844 206.445 Q 31.74 203.906 26.467 200.098 L 26.467 200.098 L 26.467 200.098 Q 21.193 196.289 17.336 191.211 L 17.336 191.211 L 17.336 191.211 Q 13.479 186.133 11.281 179.688 L 11.281 179.688 L 11.281 179.688 Q 9.084 173.242 9.084 165.43 L 9.084 165.43 L 36.037 165.43 L 36.037 165.43 Q 36.232 171.875 38.283 176.465 L 38.283 176.465 L 38.283 176.465 Q 40.334 181.055 43.996 183.984 L 43.996 183.984 L 43.996 183.984 Q 47.658 186.914 52.785 188.281 L 52.785 188.281 L 52.785 188.281 Q 57.912 189.648 64.064 189.648 L 64.064 189.648 L 64.064 189.648 Q 69.533 189.648 73.781 188.379 L 73.781 188.379 L 73.781 188.379 Q 78.029 187.109 80.959 184.863 L 80.959 184.863 L 80.959 184.863 Q 83.889 182.617 85.451 179.443 L 85.451 179.443 L 85.451 179.443 Q 87.014 176.27 87.014 172.461 Z  M 156.838 78.027 L 183.986 78.027 L 183.986 103.906 L 223.439 103.906 L 223.439 123.926 L 183.986 123.926 L 183.986 169.336 L 183.986 169.336 Q 183.986 175.098 185.305 178.955 L 185.305 178.955 L 185.305 178.955 Q 186.623 182.813 189.064 185.107 L 189.064 185.107 L 189.064 185.107 Q 191.506 187.402 194.973 188.379 L 194.973 188.379 L 194.973 188.379 Q 198.439 189.355 202.736 189.355 L 202.736 189.355 L 202.736 189.355 Q 205.861 189.355 209.133 189.063 L 209.133 189.063 L 209.133 189.063 Q 212.404 188.77 215.383 188.33 L 215.383 188.33 L 215.383 188.33 Q 218.361 187.891 220.949 187.402 L 220.949 187.402 L 220.949 187.402 Q 223.537 186.914 225.393 186.426 L 225.393 186.426 L 228.029 205.078 L 228.029 205.078 Q 225.197 206.738 221.389 207.959 L 221.389 207.959 L 221.389 207.959 Q 217.58 209.18 213.283 209.961 L 213.283 209.961 L 213.283 209.961 Q 208.986 210.742 204.348 211.182 L 204.348 211.182 L 204.348 211.182 Q 199.709 211.621 195.217 211.621 L 195.217 211.621 L 195.217 211.621 Q 186.525 211.621 179.445 209.326 L 179.445 209.326 L 179.445 209.326 Q 172.365 207.031 167.336 202.197 L 167.336 202.197 L 167.336 202.197 Q 162.307 197.363 159.572 189.893 L 159.572 189.893 L 159.572 189.893 Q 156.838 182.422 156.838 171.973 L 156.838 171.973 L 156.838 123.926 L 132.717 123.926 L 132.717 103.906 L 156.838 103.906 L 156.838 78.027 Z  M 347.756 209.57 L 320.217 209.57 L 320.217 209.57 Q 319.24 207.617 318.557 205.078 L 318.557 205.078 L 318.557 205.078 Q 317.873 202.539 317.385 199.707 L 317.385 199.707 L 317.385 199.707 Q 315.139 202.148 312.209 204.297 L 312.209 204.297 L 312.209 204.297 Q 309.279 206.445 305.715 208.057 L 305.715 208.057 L 305.715 208.057 Q 302.15 209.668 297.854 210.596 L 297.854 210.596 L 297.854 210.596 Q 293.557 211.523 288.576 211.523 L 288.576 211.523 L 288.576 211.523 Q 280.471 211.523 273.684 209.18 L 273.684 209.18 L 273.684 209.18 Q 266.896 206.836 262.014 202.637 L 262.014 202.637 L 262.014 202.637 Q 257.131 198.438 254.396 192.627 L 254.396 192.627 L 254.396 192.627 Q 251.662 186.816 251.662 179.98 L 251.662 179.98 L 251.662 179.98 Q 251.662 163.281 264.113 154.15 L 264.113 154.15 L 264.113 154.15 Q 276.564 145.02 301.271 145.02 L 301.271 145.02 L 316.408 145.02 L 316.408 138.77 L 316.408 138.77 Q 316.408 131.152 311.428 126.709 L 311.428 126.709 L 311.428 126.709 Q 306.447 122.266 297.072 122.266 L 297.072 122.266 L 297.072 122.266 Q 288.771 122.266 284.963 125.83 L 284.963 125.83 L 284.963 125.83 Q 281.154 129.395 281.154 135.352 L 281.154 135.352 L 254.006 135.352 L 254.006 135.352 Q 254.006 128.613 256.984 122.559 L 256.984 122.559 L 256.984 122.559 Q 259.963 116.504 265.676 111.914 L 265.676 111.914 L 265.676 111.914 Q 271.389 107.324 279.641 104.639 L 279.641 104.639 L 279.641 104.639 Q 287.893 101.953 298.537 101.953 L 298.537 101.953 L 298.537 101.953 Q 308.107 101.953 316.359 104.297 L 316.359 104.297 L 316.359 104.297 Q 324.611 106.641 330.666 111.23 L 330.666 111.23 L 330.666 111.23 Q 336.721 115.82 340.139 122.803 L 340.139 122.803 L 340.139 122.803 Q 343.557 129.785 343.557 138.965 L 343.557 138.965 L 343.557 184.277 L 343.557 184.277 Q 343.557 192.773 344.631 198.34 L 344.631 198.34 L 344.631 198.34 Q 345.705 203.906 347.756 207.91 L 347.756 207.91 L 347.756 209.57 Z  M 294.338 190.527 L 294.338 190.527 L 294.338 190.527 Q 298.439 190.527 301.955 189.551 L 301.955 189.551 L 301.955 189.551 Q 305.471 188.574 308.303 187.012 L 308.303 187.012 L 308.303 187.012 Q 311.135 185.449 313.186 183.447 L 313.186 183.447 L 313.186 183.447 Q 315.236 181.445 316.408 179.395 L 316.408 179.395 L 316.408 161.23 L 302.541 161.23 L 302.541 161.23 Q 296.193 161.23 291.701 162.451 L 291.701 162.451 L 291.701 162.451 Q 287.209 163.672 284.377 165.869 L 284.377 165.869 L 284.377 165.869 Q 281.545 168.066 280.178 171.143 L 280.178 171.143 L 280.178 171.143 Q 278.811 174.219 278.811 177.832 L 278.811 177.832 L 278.811 177.832 Q 278.811 183.301 282.668 186.914 L 282.668 186.914 L 282.668 186.914 Q 286.525 190.527 294.338 190.527 Z  M 450.1 101.953 L 450.1 101.953 L 450.1 101.953 Q 456.252 101.953 461.477 102.783 L 461.477 102.783 L 461.477 102.783 Q 466.701 103.613 469.924 104.59 L 469.924 104.59 L 465.92 131.641 L 465.92 131.641 Q 460.549 130.371 454.934 129.736 L 454.934 129.736 L 454.934 129.736 Q 449.318 129.102 444.24 129.102 L 444.24 129.102 L 444.24 129.102 Q 432.814 129.102 425.93 133.496 L 425.93 133.496 L 425.93 133.496 Q 419.045 137.891 415.627 146.094 L 415.627 146.094 L 415.627 209.57 L 388.479 209.57 L 388.479 103.906 L 413.771 103.906 L 415.041 121.191 L 415.041 121.191 Q 421.486 112.207 430.471 107.08 L 430.471 107.08 L 430.471 107.08 Q 439.455 101.953 450.1 101.953 Z  M 516.896 78.027 L 544.045 78.027 L 544.045 103.906 L 583.498 103.906 L 583.498 123.926 L 544.045 123.926 L 544.045 169.336 L 544.045 169.336 Q 544.045 175.098 545.363 178.955 L 545.363 178.955 L 545.363 178.955 Q 546.682 182.813 549.123 185.107 L 549.123 185.107 L 549.123 185.107 Q 551.564 187.402 555.031 188.379 L 555.031 188.379 L 555.031 188.379 Q 558.498 189.355 562.795 189.355 L 562.795 189.355 L 562.795 189.355 Q 565.92 189.355 569.191 189.063 L 569.191 189.063 L 569.191 189.063 Q 572.463 188.77 575.441 188.33 L 575.441 188.33 L 575.441 188.33 Q 578.42 187.891 581.008 187.402 L 581.008 187.402 L 581.008 187.402 Q 583.596 186.914 585.451 186.426 L 585.451 186.426 L 588.088 205.078 L 588.088 205.078 Q 585.256 206.738 581.447 207.959 L 581.447 207.959 L 581.447 207.959 Q 577.639 209.18 573.342 209.961 L 573.342 209.961 L 573.342 209.961 Q 569.045 210.742 564.406 211.182 L 564.406 211.182 L 564.406 211.182 Q 559.768 211.621 555.275 211.621 L 555.275 211.621 L 555.275 211.621 Q 546.584 211.621 539.504 209.326 L 539.504 209.326 L 539.504 209.326 Q 532.424 207.031 527.395 202.197 L 527.395 202.197 L 527.395 202.197 Q 522.365 197.363 519.631 189.893 L 519.631 189.893 L 519.631 189.893 Q 516.896 182.422 516.896 171.973 L 516.896 171.973 L 516.896 123.926 L 492.775 123.926 L 492.775 103.906 L 516.896 103.906 L 516.896 78.027 Z  M 683.205 209.57 L 681.643 194.727 L 681.643 194.727 Q 676.271 202.637 668.703 207.129 L 668.703 207.129 L 668.703 207.129 Q 661.135 211.621 652.15 211.621 L 652.15 211.621 L 652.15 211.621 Q 643.947 211.621 637.111 209.082 L 637.111 209.082 L 637.111 209.082 Q 630.275 206.543 625.393 201.025 L 625.393 201.025 L 625.393 201.025 Q 620.51 195.508 617.824 186.963 L 617.824 186.963 L 617.824 186.963 Q 615.139 178.418 615.139 166.406 L 615.139 166.406 L 615.139 103.906 L 642.287 103.906 L 642.287 166.602 L 642.287 166.602 Q 642.287 173.047 643.215 177.441 L 643.215 177.441 L 643.215 177.441 Q 644.143 181.836 646.193 184.521 L 646.193 184.521 L 646.193 184.521 Q 648.244 187.207 651.564 188.379 L 651.564 188.379 L 651.564 188.379 Q 654.885 189.551 659.67 189.551 L 659.67 189.551 L 659.67 189.551 Q 667.775 189.551 672.854 186.475 L 672.854 186.475 L 672.854 186.475 Q 677.932 183.398 680.568 178.027 L 680.568 178.027 L 680.568 103.906 L 707.814 103.906 L 707.814 209.57 L 683.205 209.57 Z  M 829.201 155.664 L 829.201 157.715 L 829.201 157.715 Q 829.201 169.238 826.516 179.102 L 826.516 179.102 L 826.516 179.102 Q 823.83 188.965 818.605 196.143 L 818.605 196.143 L 818.605 196.143 Q 813.381 203.32 805.666 207.422 L 805.666 207.422 L 805.666 207.422 Q 797.951 211.523 787.99 211.523 L 787.99 211.523 L 787.99 211.523 Q 779.494 211.523 773.049 208.594 L 773.049 208.594 L 773.049 208.594 Q 766.604 205.664 761.818 200.391 L 761.818 200.391 L 761.818 250.195 L 734.67 250.195 L 734.67 103.906 L 759.768 103.906 L 760.744 114.258 L 760.744 114.258 Q 765.627 108.398 772.268 105.176 L 772.268 105.176 L 772.268 105.176 Q 778.908 101.953 787.795 101.953 L 787.795 101.953 L 787.795 101.953 Q 797.854 101.953 805.568 105.811 L 805.568 105.811 L 805.568 105.811 Q 813.283 109.668 818.557 116.748 L 818.557 116.748 L 818.557 116.748 Q 823.83 123.828 826.516 133.74 L 826.516 133.74 L 826.516 133.74 Q 829.201 143.652 829.201 155.664 L 829.201 155.664 Z  M 802.053 157.715 L 802.053 155.664 L 802.053 155.664 Q 802.053 149.023 800.832 143.213 L 800.832 143.213 L 800.832 143.213 Q 799.611 137.402 797.023 133.154 L 797.023 133.154 L 797.023 133.154 Q 794.436 128.906 790.383 126.465 L 790.383 126.465 L 790.383 126.465 Q 786.33 124.023 780.568 124.023 L 780.568 124.023 L 780.568 124.023 Q 773.439 124.023 768.898 126.807 L 768.898 126.807 L 768.898 126.807 Q 764.357 129.59 761.818 134.668 L 761.818 134.668 L 761.818 178.809 L 761.818 178.809 Q 764.357 183.789 768.898 186.768 L 768.898 186.768 L 768.898 186.768 Q 773.439 189.746 780.764 189.746 L 780.764 189.746 L 780.764 189.746 Q 786.525 189.746 790.578 187.207 L 790.578 187.207 L 790.578 187.207 Q 794.631 184.668 797.17 180.273 L 797.17 180.273 L 797.17 180.273 Q 799.709 175.879 800.881 170.068 L 800.881 170.068 L 800.881 170.068 Q 802.053 164.258 802.053 157.715 L 802.053 157.715 Z  M 922.463 180.566 L 922.463 180.566 L 922.463 180.566 Q 922.463 178.125 921.34 176.27 L 921.34 176.27 L 921.34 176.27 Q 920.217 174.414 917.336 172.803 L 917.336 172.803 L 917.336 172.803 Q 914.455 171.191 909.67 169.824 L 909.67 169.824 L 909.67 169.824 Q 904.885 168.457 897.561 167.09 L 897.561 167.09 L 897.561 167.09 Q 888.283 165.234 880.617 162.451 L 880.617 162.451 L 880.617 162.451 Q 872.951 159.668 867.482 155.713 L 867.482 155.713 L 867.482 155.713 Q 862.014 151.758 858.938 146.582 L 858.938 146.582 L 858.938 146.582 Q 855.861 141.406 855.861 134.668 L 855.861 134.668 L 855.861 134.668 Q 855.861 128.125 858.986 122.168 L 858.986 122.168 L 858.986 122.168 Q 862.111 116.211 867.971 111.719 L 867.971 111.719 L 867.971 111.719 Q 873.83 107.227 882.229 104.59 L 882.229 104.59 L 882.229 104.59 Q 890.627 101.953 901.174 101.953 L 901.174 101.953 L 901.174 101.953 Q 912.209 101.953 920.998 104.541 L 920.998 104.541 L 920.998 104.541 Q 929.787 107.129 935.891 111.67 L 935.891 111.67 L 935.891 111.67 Q 941.994 116.211 945.217 122.461 L 945.217 122.461 L 945.217 122.461 Q 948.439 128.711 948.439 136.035 L 948.439 136.035 L 921.291 136.035 L 921.291 136.035 Q 921.291 129.883 916.311 125.732 L 916.311 125.732 L 916.311 125.732 Q 911.33 121.582 901.174 121.582 L 901.174 121.582 L 901.174 121.582 Q 891.701 121.582 886.867 125 L 886.867 125 L 886.867 125 Q 882.033 128.418 882.033 133.398 L 882.033 133.398 L 882.033 133.398 Q 882.033 135.742 883.01 137.744 L 883.01 137.744 L 883.01 137.744 Q 883.986 139.746 886.477 141.357 L 886.477 141.357 L 886.477 141.357 Q 888.967 142.969 893.264 144.287 L 893.264 144.287 L 893.264 144.287 Q 897.561 145.605 904.201 146.582 L 904.201 146.582 L 904.201 146.582 Q 913.771 148.145 921.975 150.586 L 921.975 150.586 L 921.975 150.586 Q 930.178 153.027 936.135 156.885 L 936.135 156.885 L 936.135 156.885 Q 942.092 160.742 945.461 166.26 L 945.461 166.26 L 945.461 166.26 Q 948.83 171.777 948.83 179.395 L 948.83 179.395 L 948.83 179.395 Q 948.83 186.426 945.461 192.334 L 945.461 192.334 L 945.461 192.334 Q 942.092 198.242 935.891 202.539 L 935.891 202.539 L 935.891 202.539 Q 929.689 206.836 920.9 209.229 L 920.9 209.229 L 920.9 209.229 Q 912.111 211.621 901.271 211.621 L 901.271 211.621 L 901.271 211.621 Q 889.357 211.621 880.227 208.496 L 880.227 208.496 L 880.227 208.496 Q 871.096 205.371 864.943 200.342 L 864.943 200.342 L 864.943 200.342 Q 858.791 195.313 855.617 188.916 L 855.617 188.916 L 855.617 188.916 Q 852.443 182.52 852.443 176.074 L 852.443 176.074 L 878.322 176.074 L 878.322 176.074 Q 878.615 180.371 880.666 183.447 L 880.666 183.447 L 880.666 183.447 Q 882.717 186.523 885.939 188.428 L 885.939 188.428 L 885.939 188.428 Q 889.162 190.332 893.313 191.211 L 893.313 191.211 L 893.313 191.211 Q 897.463 192.09 901.857 192.09 L 901.857 192.09 L 901.857 192.09 Q 911.916 192.09 917.189 188.867 L 917.189 188.867 L 917.189 188.867 Q 922.463 185.645 922.463 180.566 Z  M 996.975 78.027 L 1024.123 78.027 L 1024.123 103.906 L 1063.576 103.906 L 1063.576 123.926 L 1024.123 123.926 L 1024.123 169.336 L 1024.123 169.336 Q 1024.123 175.098 1025.441 178.955 L 1025.441 178.955 L 1025.441 178.955 Q 1026.76 182.813 1029.201 185.107 L 1029.201 185.107 L 1029.201 185.107 Q 1031.643 187.402 1035.109 188.379 L 1035.109 188.379 L 1035.109 188.379 Q 1038.576 189.355 1042.873 189.355 L 1042.873 189.355 L 1042.873 189.355 Q 1045.998 189.355 1049.27 189.063 L 1049.27 189.063 L 1049.27 189.063 Q 1052.541 188.77 1055.52 188.33 L 1055.52 188.33 L 1055.52 188.33 Q 1058.498 187.891 1061.086 187.402 L 1061.086 187.402 L 1061.086 187.402 Q 1063.674 186.914 1065.529 186.426 L 1065.529 186.426 L 1068.166 205.078 L 1068.166 205.078 Q 1065.334 206.738 1061.525 207.959 L 1061.525 207.959 L 1061.525 207.959 Q 1057.717 209.18 1053.42 209.961 L 1053.42 209.961 L 1053.42 209.961 Q 1049.123 210.742 1044.484 211.182 L 1044.484 211.182 L 1044.484 211.182 Q 1039.846 211.621 1035.354 211.621 L 1035.354 211.621 L 1035.354 211.621 Q 1026.662 211.621 1019.582 209.326 L 1019.582 209.326 L 1019.582 209.326 Q 1012.502 207.031 1007.473 202.197 L 1007.473 202.197 L 1007.473 202.197 Q 1002.443 197.363 999.709 189.893 L 999.709 189.893 L 999.709 189.893 Q 996.975 182.422 996.975 171.973 L 996.975 171.973 L 996.975 123.926 L 972.854 123.926 L 972.854 103.906 L 996.975 103.906 L 996.975 78.027 Z  M 1145.607 211.523 L 1145.607 211.523 L 1145.607 211.523 Q 1133.4 211.523 1123.439 207.52 L 1123.439 207.52 L 1123.439 207.52 Q 1113.479 203.516 1106.35 196.631 L 1106.35 196.631 L 1106.35 196.631 Q 1099.221 189.746 1095.363 180.42 L 1095.363 180.42 L 1095.363 180.42 Q 1091.506 171.094 1091.506 160.449 L 1091.506 160.449 L 1091.506 156.543 L 1091.506 156.543 Q 1091.506 144.434 1095.314 134.424 L 1095.314 134.424 L 1095.314 134.424 Q 1099.123 124.414 1105.959 117.188 L 1105.959 117.188 L 1105.959 117.188 Q 1112.795 109.961 1122.17 105.957 L 1122.17 105.957 L 1122.17 105.957 Q 1131.545 101.953 1142.58 101.953 L 1142.58 101.953 L 1142.58 101.953 Q 1154.006 101.953 1162.941 105.713 L 1162.941 105.713 L 1162.941 105.713 Q 1171.877 109.473 1178.078 116.309 L 1178.078 116.309 L 1178.078 116.309 Q 1184.279 123.145 1187.502 132.764 L 1187.502 132.764 L 1187.502 132.764 Q 1190.725 142.383 1190.725 154.004 L 1190.725 154.004 L 1190.725 165.527 L 1119.045 165.527 L 1119.045 165.527 Q 1119.826 170.898 1122.219 175.342 L 1122.219 175.342 L 1122.219 175.342 Q 1124.611 179.785 1128.322 183.008 L 1128.322 183.008 L 1128.322 183.008 Q 1132.033 186.23 1136.818 187.988 L 1136.818 187.988 L 1136.818 187.988 Q 1141.604 189.746 1147.268 189.746 L 1147.268 189.746 L 1147.268 189.746 Q 1151.271 189.746 1155.227 188.965 L 1155.227 188.965 L 1155.227 188.965 Q 1159.182 188.184 1162.795 186.67 L 1162.795 186.67 L 1162.795 186.67 Q 1166.408 185.156 1169.533 182.91 L 1169.533 182.91 L 1169.533 182.91 Q 1172.658 180.664 1175.002 177.637 L 1175.002 177.637 L 1188.576 192.285 L 1188.576 192.285 Q 1186.037 195.898 1181.984 199.365 L 1181.984 199.365 L 1181.984 199.365 Q 1177.932 202.832 1172.414 205.518 L 1172.414 205.518 L 1172.414 205.518 Q 1166.896 208.203 1160.158 209.863 L 1160.158 209.863 L 1160.158 209.863 Q 1153.42 211.523 1145.607 211.523 Z  M 1142.385 123.926 L 1142.385 123.926 L 1142.385 123.926 Q 1137.795 123.926 1133.986 125.537 L 1133.986 125.537 L 1133.986 125.537 Q 1130.178 127.148 1127.297 130.176 L 1127.297 130.176 L 1127.297 130.176 Q 1124.416 133.203 1122.463 137.402 L 1122.463 137.402 L 1122.463 137.402 Q 1120.51 141.602 1119.533 146.777 L 1119.533 146.777 L 1164.064 146.777 L 1164.064 144.629 L 1164.064 144.629 Q 1163.869 140.332 1162.404 136.523 L 1162.404 136.523 L 1162.404 136.523 Q 1160.939 132.715 1158.205 129.932 L 1158.205 129.932 L 1158.205 129.932 Q 1155.471 127.148 1151.516 125.537 L 1151.516 125.537 L 1151.516 125.537 Q 1147.561 123.926 1142.385 123.926 Z  M 1290.236 101.953 L 1290.236 101.953 L 1290.236 101.953 Q 1296.389 101.953 1301.613 102.783 L 1301.613 102.783 L 1301.613 102.783 Q 1306.838 103.613 1310.061 104.59 L 1310.061 104.59 L 1306.057 131.641 L 1306.057 131.641 Q 1300.686 130.371 1295.07 129.736 L 1295.07 129.736 L 1295.07 129.736 Q 1289.455 129.102 1284.377 129.102 L 1284.377 129.102 L 1284.377 129.102 Q 1272.951 129.102 1266.066 133.496 L 1266.066 133.496 L 1266.066 133.496 Q 1259.182 137.891 1255.764 146.094 L 1255.764 146.094 L 1255.764 209.57 L 1228.615 209.57 L 1228.615 103.906 L 1253.908 103.906 L 1255.178 121.191 L 1255.178 121.191 Q 1261.623 112.207 1270.607 107.08 L 1270.607 107.08 L 1270.607 107.08 Q 1279.592 101.953 1290.236 101.953 Z " fill-rule="evenodd" fill="rgb(255,255,255)"/></g></svg>