<?xml version="1.0" encoding="iso-8859-1"?>
<!-- Generator: Adobe Illustrator 19.0.0, SVG Export Plug-In . SVG Version: 6.00 Build 0)  -->
<svg version="1.1" id="Layer_1" xmlns="http://www.w3.org/2000/svg" xmlns:xlink="http://www.w3.org/1999/xlink" x="0px" y="0px"
	 viewBox="0 0 512.002 512.002" style="enable-background:new 0 0 512.002 512.002;" xml:space="preserve">
<path style="fill:#FFC850;" d="M430.785,68.738L2.587,496.933c-3.448,3.448-3.448,9.035,0,12.483
	c1.725,1.725,3.982,2.586,6.241,2.586s4.517-0.862,6.241-2.586L443.267,81.221L430.785,68.738z"/>
<g>
	<path style="fill:#FFDC64;" d="M461.624,137.763l6.66-6.66c3.447-3.447,9.034-3.45,12.484,0c3.45,3.45,3.447,9.037,0,12.484
		l-12.484,12.484c-0.003,0.003-0.01,0.006-0.013,0.009c-0.013,0.013-0.024,0.03-0.039,0.043c-31.025,31.025-81.327,31.025-112.352,0
		c-2.002-2.002-3.863-4.089-5.607-6.242c1.743-2.152,3.605-4.239,5.607-6.242C384.793,114.725,430.432,112.786,461.624,137.763z"/>
	<path style="fill:#FFDC64;" d="M392.964,218.906l6.608-6.608c3.447-3.447,9.034-3.45,12.484,0c3.45,3.45,3.447,9.037,0,12.484
		l-12.484,12.484c-0.003,0.003-0.009,0.004-0.012,0.009c-0.014,0.014-0.025,0.03-0.04,0.043c-34.473,34.473-90.363,34.473-124.836,0
		c-2.006-2.006-3.87-4.099-5.642-6.242c1.772-2.143,3.636-4.236,5.642-6.242C307.05,192.467,358.29,190.498,392.964,218.906z"/>
	<path style="fill:#FFDC64;" d="M318.062,306.291l6.608-6.608c3.447-3.447,9.034-3.45,12.484,0s3.447,9.037,0,12.484l-12.484,12.484
		c-0.003,0.003-0.009,0.004-0.012,0.009c-0.014,0.014-0.025,0.03-0.04,0.043c-37.92,37.92-99.4,37.92-137.32,0
		c-2.006-2.006-3.849-4.111-5.642-6.242c1.794-2.131,3.637-4.236,5.642-6.242C223.112,276.405,279.914,274.459,318.062,306.291z"/>
	<path style="fill:#FFDC64;" d="M243.161,393.676l6.608-6.608c3.447-3.447,9.034-3.45,12.484,0c3.45,3.45,3.447,9.037,0,12.484
		l-12.536,12.536c-41.367,41.367-108.436,41.367-149.802,0c-2.006-2.006-3.83-4.121-5.642-6.242
		c1.812-2.121,3.636-4.236,5.642-6.242C139.174,360.343,201.542,358.416,243.161,393.676z"/>
</g>
<g>
	<path style="fill:#FFF082;" d="M511.991,4.92c0.042-1.62-0.065-3.198-0.118-4.791c-1.593-0.053-3.171-0.161-4.791-0.119
		c-44.534,1.146-81.566,38.178-82.712,82.712c-0.042,1.62,0.066,3.198,0.119,4.791c1.593,0.053,3.171,0.16,4.791,0.119
		C473.813,86.486,510.845,49.454,511.991,4.92z"/>
	<path style="fill:#FFF082;" d="M205.711,193.939l6.608-6.608c3.447-3.447,3.45-9.034,0-12.484c-3.45-3.45-9.037-3.447-12.484,0
		l-12.484,12.484c-0.003,0.003-0.004,0.009-0.009,0.012c-0.014,0.014-0.03,0.025-0.043,0.04c-37.92,37.92-37.92,99.4,0,137.32
		c2.006,2.006,4.111,3.849,6.242,5.642c2.131-1.794,4.236-3.637,6.242-5.642C235.596,288.889,237.543,232.087,205.711,193.939z"/>
	<path style="fill:#FFF082;" d="M293.096,119.038l6.608-6.608c3.447-3.447,3.45-9.034,0-12.484c-3.45-3.45-9.037-3.447-12.484,0
		l-12.484,12.484c-0.003,0.003-0.004,0.009-0.009,0.012c-0.014,0.014-0.03,0.025-0.043,0.04c-34.473,34.473-34.473,90.363,0,124.836
		c2.006,2.006,4.099,3.87,6.242,5.642c2.143-1.772,4.236-3.636,6.242-5.642C319.534,204.951,321.504,153.711,293.096,119.038z"/>
	<path style="fill:#FFF082;" d="M374.187,50.429l6.66-6.66c3.447-3.447,3.45-9.034,0-12.484c-3.45-3.45-9.037-3.447-12.484,0
		l-12.484,12.484c-0.003,0.003-0.004,0.01-0.009,0.013c-0.013,0.013-0.03,0.024-0.043,0.039c-31.026,31.025-31.026,81.327,0,112.352
		c2.002,2.002,4.089,3.863,6.242,5.607c2.152-1.743,4.239-3.605,6.242-5.607C397.225,127.261,399.165,81.622,374.187,50.429z"/>
	<path style="fill:#FFF082;" d="M118.325,268.84l6.608-6.608c3.447-3.447,3.45-9.034,0-12.484c-3.45-3.45-9.037-3.447-12.484,0
		l-12.536,12.536c-41.367,41.367-41.367,108.436,0,149.803c2.006,2.006,4.121,3.83,6.242,5.642c2.121-1.812,4.236-3.636,6.242-5.642
		C151.658,372.827,153.586,310.46,118.325,268.84z"/>
</g>
<g>
</g>
<g>
</g>
<g>
</g>
<g>
</g>
<g>
</g>
<g>
</g>
<g>
</g>
<g>
</g>
<g>
</g>
<g>
</g>
<g>
</g>
<g>
</g>
<g>
</g>
<g>
</g>
<g>
</g>
</svg>
