<?xml version="1.0" encoding="iso-8859-1"?>
<!-- Generator: Adobe Illustrator 19.0.0, SVG Export Plug-In . SVG Version: 6.00 Build 0)  -->
<svg version="1.1" id="Layer_1" xmlns="http://www.w3.org/2000/svg" xmlns:xlink="http://www.w3.org/1999/xlink" x="0px" y="0px"
	 viewBox="0 0 512 512" style="enable-background:new 0 0 512 512;" xml:space="preserve">
<path style="fill:#FFF082;" d="M503.974,12.782c0.041-1.569-0.063-3.098-0.114-4.641c-1.543-0.051-3.072-0.156-4.641-0.115
	c-43.142,1.111-79.015,36.984-80.125,80.125c-0.041,1.569,0.064,3.098,0.115,4.641c1.543,0.051,3.072,0.155,4.641,0.115
	C466.99,91.796,502.864,55.923,503.974,12.782z"/>
<g>
	<path style="fill:#FFDC64;" d="M322.462,310.47c1.943,1.943,3.728,3.983,5.465,6.047c-1.738,2.064-3.523,4.103-5.465,6.047
		c-36.734,36.734-96.291,36.734-133.025,0c-1.943-1.943-3.728-3.983-5.465-6.047c1.738-2.064,3.523-4.103,5.465-6.047
		C226.172,273.735,285.728,273.735,322.462,310.47z"/>
	<path style="fill:#FFDC64;" d="M395.022,225.817c1.943,1.943,3.749,3.971,5.465,6.047c-1.717,2.076-3.522,4.103-5.465,6.047
		c-33.394,33.394-87.537,33.394-120.931,0c-1.943-1.943-3.749-3.971-5.465-6.047c1.717-2.076,3.522-4.103,5.465-6.047
		C307.485,192.422,361.627,192.423,395.022,225.817z"/>
	<path style="fill:#FFDC64;" d="M461.533,147.212c1.939,1.939,3.742,3.961,5.432,6.047c-1.689,2.084-3.492,4.107-5.432,6.047
		c-30.055,30.055-78.784,30.055-108.838,0c-1.939-1.939-3.742-3.961-5.432-6.047c1.689-2.084,3.492-4.107,5.432-6.047
		C382.751,117.157,431.478,117.157,461.533,147.212z"/>
	<path style="fill:#FFDC64;" d="M249.903,395.122c1.943,1.943,3.71,3.992,5.465,6.047c-1.755,2.054-3.522,4.103-5.465,6.047
		c-40.073,40.073-105.044,40.073-145.117,0c-1.943-1.943-3.71-3.992-5.465-6.047c1.755-2.054,3.522-4.103,5.465-6.047
		C144.859,355.048,209.83,355.048,249.903,395.122z"/>
</g>
<g>
	<path style="fill:#FFF082;" d="M201.53,189.537c-1.943-1.943-3.983-3.728-6.047-5.465c-2.064,1.738-4.103,3.523-6.047,5.465
		c-36.734,36.734-36.734,96.291,0,133.025c1.943,1.943,3.983,3.728,6.047,5.465c2.064-1.738,4.103-3.523,6.047-5.465
		C238.265,285.828,238.265,226.272,201.53,189.537z"/>
	<path style="fill:#FFF082;" d="M286.183,116.978c-1.943-1.943-3.971-3.749-6.047-5.465c-2.076,1.717-4.103,3.522-6.047,5.465
		c-33.394,33.394-33.394,87.537,0,120.931c1.943,1.943,3.971,3.749,6.047,5.465c2.076-1.717,4.103-3.522,6.047-5.465
		C319.577,204.515,319.577,150.373,286.183,116.978z"/>
	<path style="fill:#FFF082;" d="M364.788,50.467c-1.939-1.939-3.961-3.742-6.047-5.432c-2.084,1.689-4.107,3.492-6.047,5.432
		c-30.054,30.055-30.055,78.784,0,108.838c1.939,1.939,3.961,3.742,6.047,5.432c2.084-1.689,4.107-3.492,6.047-5.432
		C394.843,129.249,394.843,80.522,364.788,50.467z"/>
	<path style="fill:#FFF082;" d="M116.878,262.097c-1.943-1.943-3.992-3.71-6.047-5.465c-2.054,1.755-4.103,3.522-6.047,5.465
		c-40.073,40.073-40.073,105.044,0,145.117c1.943,1.943,3.992,3.71,6.047,5.465c2.054-1.755,4.103-3.522,6.047-5.465
		C156.952,367.141,156.952,302.17,116.878,262.097z"/>
</g>
<path d="M474.004,135.496l-6.429,6.429c-0.125-0.126-0.248-0.259-0.373-0.383c-16.354-16.355-38.147-25.053-60.489-24.919
	l15.702-15.702c0.236,0.004,0.463,0.012,0.704,0.012c0.307,0,0.619-0.003,0.934-0.012c47.271-1.216,86.717-40.664,87.934-87.931
	c0.037-1.424-0.02-2.767-0.071-3.954c-0.016-0.386-0.033-0.774-0.045-1.161c-0.14-4.218-3.526-7.606-7.744-7.747l-1.157-0.046
	c-1.188-0.05-2.532-0.107-3.96-0.071c-47.27,1.217-86.716,40.664-87.934,87.935c-0.015,0.563-0.006,1.102,0.002,1.636
	l-15.785,15.786c0.123-21.922-8.149-43.881-24.838-60.57c-0.125-0.125-0.257-0.248-0.384-0.373l6.429-6.429
	c3.131-3.131,3.131-8.207,0-11.337c-3.131-3.132-8.207-3.132-11.337,0l-18.14,18.14c-31.22,31.22-33.01,80.881-5.394,114.232
	l-22.529,22.53c1.104-25.303-7.974-50.971-27.253-70.249c-0.125-0.125-0.257-0.249-0.383-0.373l6.429-6.429
	c3.131-3.131,3.131-8.206,0-11.337s-8.207-3.131-11.337,0l-18.14,18.14c-34.555,34.556-36.343,89.632-5.409,126.341l-26.209,26.209
	c0.195-2.586,0.295-5.189,0.295-7.81c0-27.266-10.618-52.901-29.898-72.18c-0.127-0.127-0.257-0.246-0.384-0.372l6.432-6.432
	c3.131-3.131,3.131-8.207,0-11.337c-3.131-3.131-8.207-3.131-11.337,0l-18.14,18.14c-19.281,19.28-29.898,44.915-29.898,72.18
	c0,24.577,8.63,47.826,24.451,66.292l-23.981,23.981c0.401-3.85,0.61-7.742,0.61-11.667c0-29.551-11.508-57.332-32.404-78.228
	c-0.127-0.127-0.257-0.246-0.384-0.372l6.43-6.43c3.131-3.131,3.131-8.207,0-11.337c-3.131-3.131-8.207-3.131-11.337,0
	L99.12,256.432c-20.896,20.896-32.402,48.677-32.402,78.228c0,26.862,9.511,52.261,26.937,72.357L2.349,498.315
	c-3.131,3.131-3.131,8.206,0,11.337C3.913,511.217,5.966,512,8.017,512s4.103-0.782,5.668-2.348l91.303-91.303
	c20.095,17.426,45.494,26.937,72.357,26.937c29.551,0,57.332-11.508,78.227-32.402l18.14-18.14c3.131-3.131,3.131-8.206,0-11.337
	c-3.131-3.131-8.207-3.131-11.337,0l-6.43,6.432c-0.125-0.127-0.245-0.257-0.372-0.384c-23.88-23.88-57.173-35.193-89.916-31.771
	l24.003-24.003c18.467,15.821,41.715,24.451,66.292,24.451c27.266,0,52.901-10.618,72.181-29.898l18.14-18.139
	c3.131-3.131,3.131-8.207,0-11.337c-3.13-3.131-8.206-3.132-11.337,0l-6.43,6.43c-0.126-0.128-0.244-0.257-0.372-0.385
	c-21.316-21.316-50.768-31.773-80.024-29.57l26.237-26.237c16.836,14.216,37.922,21.98,60.212,21.98
	c24.982,0,48.469-9.729,66.134-27.394l0,0l0,0l18.14-18.14c3.131-3.131,3.131-8.207,0-11.337c-3.131-3.131-8.207-3.131-11.337,0
	l-6.429,6.429c-0.124-0.126-0.248-0.259-0.373-0.383c-12.65-12.65-28.533-21.364-45.93-25.197
	c-8.01-1.765-16.168-2.452-24.272-2.101l22.483-22.483c15.654,12.964,34.893,19.457,54.145,19.456
	c21.757-0.001,43.523-8.285,60.087-24.85l0,0l0,0l18.139-18.14c3.131-3.131,3.131-8.207,0-11.337
	C482.211,132.365,477.135,132.365,474.004,135.496z M495.772,16.227c-2.77,36.024-32.455,65.709-68.479,68.48
	C430.064,48.683,459.748,18.997,495.772,16.227z M358.364,56.135c0.125-0.125,0.251-0.25,0.378-0.375
	c0.127,0.124,0.252,0.249,0.378,0.375c26.881,26.881,26.881,70.62,0,97.501c-0.123,0.122-0.246,0.245-0.37,0.367
	c-0.127-0.125-0.26-0.241-0.386-0.367C331.482,126.755,331.482,83.016,358.364,56.135z M279.758,122.647
	c0.125-0.125,0.251-0.25,0.378-0.375c0.127,0.125,0.253,0.25,0.378,0.375c30.215,30.215,30.215,79.379,0,109.595
	c-0.123,0.122-0.246,0.245-0.371,0.367c-0.126-0.125-0.26-0.242-0.386-0.367C249.543,202.026,249.543,152.863,279.758,122.647z
	 M195.106,195.206c0.126-0.125,0.251-0.25,0.378-0.374c0.126,0.124,0.251,0.248,0.377,0.373c0,0,0,0.001,0.001,0.001
	c16.253,16.251,25.202,37.86,25.202,60.844c0,10.361-1.835,20.436-5.322,29.873c-0.032,0.084-0.068,0.167-0.097,0.252
	c-4.253,11.399-10.923,21.858-19.784,30.718c-0.123,0.123-0.246,0.245-0.37,0.367c-0.126-0.125-0.26-0.242-0.385-0.367
	c-16.253-16.253-25.202-37.86-25.202-60.844C169.904,233.067,178.854,211.458,195.106,195.206z M110.454,267.765
	c0.125-0.125,0.251-0.249,0.378-0.374c0.127,0.124,0.252,0.249,0.378,0.374c17.867,17.868,27.707,41.623,27.707,66.89
	c0,25.269-9.84,49.024-27.707,66.89c-0.123,0.123-0.246,0.245-0.371,0.367c-0.126-0.125-0.259-0.241-0.385-0.367
	c-17.867-17.867-27.707-41.622-27.707-66.89C82.748,309.388,92.588,285.632,110.454,267.765z M244.235,400.79
	c0.125,0.125,0.25,0.251,0.374,0.378c-0.124,0.127-0.248,0.252-0.374,0.378c-17.867,17.868-41.622,27.707-66.89,27.707
	c-19.656,0-38.383-5.978-54.148-17.035c9.762-9.924,17.43-21.366,22.783-33.792C180.171,366.441,218.561,375.116,244.235,400.79z
	 M316.794,316.138c0.125,0.126,0.25,0.251,0.374,0.378c-0.124,0.127-0.249,0.252-0.374,0.378
	c-16.253,16.253-37.86,25.202-60.844,25.202c-17.363,0-33.936-5.115-48.014-14.62c9.284-9.473,16.512-20.435,21.445-32.35
	C259.978,285.225,293.935,293.279,316.794,316.138z M389.352,231.486c0.125,0.125,0.25,0.251,0.375,0.378
	c-0.125,0.126-0.25,0.252-0.375,0.378c-14.636,14.636-34.098,22.697-54.797,22.697c-15.07,0-29.473-4.292-41.846-12.263
	c8.866-9.103,15.511-19.571,19.922-30.732C339.952,203.867,369.052,211.184,389.352,231.486z M371.478,163.899
	c8.287-8.578,14.408-18.478,18.368-29.018c23.634-6.117,48.619,0.602,66.019,18c0.125,0.125,0.25,0.251,0.375,0.378
	c-0.125,0.126-0.25,0.252-0.375,0.378C433.013,176.488,397.982,179.9,371.478,163.899z"/>
<g>
</g>
<g>
</g>
<g>
</g>
<g>
</g>
<g>
</g>
<g>
</g>
<g>
</g>
<g>
</g>
<g>
</g>
<g>
</g>
<g>
</g>
<g>
</g>
<g>
</g>
<g>
</g>
<g>
</g>
</svg>
